# AST/ASF file generated using VICON BodyLanguage
# -----------------------------------------------
:version 1.10
:name VICON
:units
  mass 1.0
  length 0.45
  angle deg
:documentation
   .ast/.asf automatically generated from VICON data using
   VICON BodyBuilder and BodyLanguage model FoxedUp or BRILLIANT.MOD
:root
   order TX TY TZ RX RY RZ
   axis XYZ
   position 0 0 0  
   orientation 0 0 0 
:bonedata
  begin
     id 1 
     name lhipjoint
     direction 0.567149 -0.783011 0.255413 
     length 2.28399 
     axis 0 0 0  XYZ
  end
  begin
     id 2 
     name lfemur
     direction 0.34202 -0.939693 0  
     length 7.34031  
     axis 0 0 20  XYZ
    dof rx ry rz
    limits (-160.0 20.0)
           (-70.0 70.0)
           (-60.0 70.0)
  end
  begin
     id 3 
     name ltibia
     direction 0.34202 -0.939693 0   
     length 6.9833   
     axis 0 0 20   XYZ
    dof rx
    limits (-10.0 170.0)
  end
  begin
     id 4 
     name lfoot
     direction 0.136498 -0.375025 0.91691   
     length 2.33665   
     axis -90 7.62852e-016 20   XYZ
    dof rx rz
    limits (-45.0 90.0)
           (-70.0 20.0)
  end
  begin
     id 5 
     name ltoes
     direction 1.5367e-011 -4.21617e-011 1   
     length 1.15039   
     axis -90 7.62852e-016 20   XYZ
    dof rx
    limits (-90.0 20.0)
  end
  begin
     id 6 
     name rhipjoint
     direction -0.602854 -0.758518 0.247423   
     length 2.35775  
     axis 0 0 0  XYZ 
  end
  begin
     id 7 
     name rfemur
     direction -0.34202 -0.939693 0   
     length 7.43932   
     axis 0 0 -20   XYZ
    dof rx ry rz
    limits (-160.0 20.0)
           (-70.0 70.0)
           (-70.0 60.0)
  end
  begin
     id 8 
     name rtibia
     direction -0.34202 -0.939693 0   
     length 7.11893   
     axis 0 0 -20   XYZ
    dof rx
    limits (-10.0 170.0)
 end
 begin
     id 9 
     name rfoot
     direction -0.131771 -0.362037 0.922803   
     length 2.53019  
     axis -90 -7.62852e-016 -20   XYZ
    dof rx rz
    limits (-45.0 90.0)
           (-20.0 70.0)
  end
  begin
     id 10 
     name rtoes
     direction -1.53733e-011 -4.21932e-011 1   
     length 1.24596   
     axis -90 -7.62852e-016 -20   XYZ
    dof rx
    limits (-90.0 20.0)
  end
  begin
     id 11 
     name lowerback
     direction 0.0235427 0.999023 -0.0374125   
     length 2.21768   
     axis 0 0 0   XYZ
    dof rx ry rz
    limits (-20.0 45.0)
           (-30.0 30.0)
           (-30.0 30.0)
  end
  begin
     id 12 
     name upperback
     direction 0.0302156 0.996818 -0.073759   
     length 2.20352   
     axis 0 0 0   XYZ
    dof rx ry rz
    limits (-20.0 45.0)
           (-30.0 30.0)
           (-30.0 30.0)
  end
  begin
     id 13 
     name thorax
     direction 0.0187169 0.998235 -0.0563532   
     length 2.22103   
     axis 0 0 0   XYZ
    dof rx ry rz
    limits (-20.0 45.0)
           (-30.0 30.0)
           (-30.0 30.0)
  end
  begin
     id 14 
     name lowerneck
     direction -0.119528 0.987423 0.103481   
     length 1.72948   
     axis 0 0 0   XYZ
    dof rx ry rz
    limits (-20.0 45.0)
           (-30.0 30.0)
           (-30.0 30.0)
  end
  begin
     id 15 
     name upperneck
     direction 0.248049 0.963095 -0.104496   
     length 1.74979   
     axis 0 0 0   XYZ
    dof rx ry rz
    limits (-20.0 45.0)
           (-30.0 30.0)
           (-30.0 30.0)
  end
  begin
     id 16
     name head
     direction 0.0903589 0.994284 -0.056876  
     length 1.78268  
     axis 0 0 0   XYZ
    dof rx ry rz
    limits (-20.0 45.0)
           (-30.0 30.0)
           (-30.0 30.0)
  end
  begin
     id 17 
     name lclavicle
     direction 0.946008 0.242039 -0.215608  
     length 3.80783  
     axis 0 0 0   XYZ
    dof ry rz
    limits (-20.0 10.0)
           (0.0 20.0)
  end
  begin
     id 18 
     name lhumerus
     direction 1 -4.48991e-011 -2.25695e-027   
     length 4.83125   
     axis 180 -30 -90   XYZ
    dof rx ry rz
    limits (-60.0 90.0)
           (-90.0 90.0)
           (-90.0 90.0)
  end
  begin
     id 19
     name lradius
     direction 0.999991 0.00366712 -0.00211721   
     length 3.00391   
     axis 180 -30 -90   XYZ
    dof rx
    limits (-10.0 170.0)
  end
  begin
     id 20
     name lwrist
     direction 0.999991 0.00393016 -0.00141978   
     length 1.50195   
     axis -1.00488e-014 90 90   XYZ
    dof ry
    limits (-180.0 0.0)
 end
  begin
     id 21 
     name lhand
     direction 1 -4.49123e-011 2.72098e-026   
     length 1.2717   
     axis -1.73687e-014 90 90   XYZ
    dof rx rz
    limits (-90.0 90.0)
           (-45.0 45.0)
  end
  begin
     id 22 
     name lfingers
     direction 1 -4.48678e-011 5.4479e-026   
     length 1.02528   
     axis -3.47372e-014 90 90   XYZ
    dof rx
    limits (0.0 90.0)
  end
  begin
     id 23
     name lthumb
     direction 0.707107 -6.34851e-011 0.707107   
     length 1.4721   
     axis -90 45 -1.62303e-014   XYZ
    dof rx rz
    limits (-45.0 45.0)
           (-45.0 45.0)
  end
  begin
     id 24 
     name rclavicle
     direction -0.981723 0.189447 -0.0181673   
     length 3.74989  
     axis 0 0 0   XYZ 
    dof ry rz
    limits (-10.0 20.0)
           (-20.0 0.0)
  end
  begin
     id 25 
     name rhumerus
     direction -1 -4.48985e-011 2.38206e-027  
     length 4.61118   
     axis 180 30 90   XYZ
    dof rx ry rz
    limits (-90.0 60.0)
           (-90.0 90.0)
           (-90.0 90.0)
  end
  begin
     id 26 
     name rradius
     direction -1 -4.48977e-011 7.41019e-027   
     length 2.91491   
     axis 180 30 90   XYZ
    dof rx
    limits (-10.0 170.0)
  end
  begin
     id 27 
     name rwrist
     direction -1 -4.48549e-011 1.3624e-026   
     length 1.45745   
     axis -1.00488e-014 -90 -90   XYZ
    dof ry
    limits (-180.0 0.0)
  end
  begin
     id 28
     name rhand
     direction -1 -4.49107e-011 2.72109e-026   
     length 1.30769   
     axis -1.73687e-014 -90 -90   XYZ
    dof rx rz
    limits (-90.0 90.0)
           (-45.0 45.0)
  end
  begin
     id 29
     name rfingers
     direction -1 -4.48919e-011 5.44468e-026   
     length 1.05429   
     axis -3.47372e-014 -90 -90   XYZ
    dof rx
    limits (0.0 90.0)
  end
  begin
     id 30
     name rthumb
     direction -0.707107 -6.35315e-011 0.707107   
     length 1.51376   
     axis -90 -45 1.62303e-014   XYZ
    dof rx rz
    limits (-45.0 45.0)
           (-45.0 45.0)
  end
:hierarchy
  begin
    root lhipjoint rhipjoint lowerback
    lhipjoint lfemur
    lfemur ltibia
    ltibia lfoot
    lfoot ltoes
    rhipjoint rfemur
    rfemur rtibia
    rtibia rfoot
    rfoot rtoes
    lowerback upperback
    upperback thorax
    thorax lowerneck lclavicle rclavicle
    lowerneck upperneck
    upperneck head
    lclavicle lhumerus
    lhumerus lradius
    lradius lwrist
    lwrist lhand lthumb
    lhand lfingers
    rclavicle rhumerus
    rhumerus rradius
    rradius rwrist
    rwrist rhand rthumb
    rhand rfingers
  end

#!OML:ASF X:\für Bonn\!DataBase\2005_08_11_Bastian_Final\c3d\Bastian.ASF
:FULLY-SPECIFIED
:DEGREES
1
root 3.15696 15.3784 17.8879 1081.85 -6.29598 -4.07322
lowerback 13.7923 -1.30748 3.25302
upperback 5.05241 -1.32594 -0.34388
thorax -2.48583 -0.641118 -1.98678
lowerneck -17.3496 -2.92336 -4.49997
upperneck -5.98858 -3.11209 6.78853
head 1.25623 -1.32249 2.82672
rclavicle 4.57205e-015 -5.56597e-015
rhumerus -54.1936 6.92737 -93.3115
rradius 60.6379
rwrist 2.36102
rhand -24.1984 24.0871
rfingers 7.12502
rthumb 2.28575 -5.88036
lclavicle 4.57205e-015 -5.56597e-015
lhumerus -33.8622 -5.28104 83.894
lradius 68.6601
lwrist -165.738
lhand -25.3643 10.9423
lfingers 7.12502
lthumb 1.15969 40.9189
rfemur -28.7148 -11.1963 27.5451
rtibia 71.0699
rfoot -32.1479 8.12028
rtoes 7.00599
lfemur -27.2087 4.1498 -15.382
ltibia 72.059
lfoot -31.7485 -15.9439
ltoes 2.24719
2
root 3.139 15.4142 18.1829 1081.69 -6.20473 -4.10444
lowerback 12.9416 -1.40066 3.42385
upperback 4.88894 -1.45588 -0.336703
thorax -2.20965 -0.702131 -2.06808
lowerneck -16.99 -2.80575 -4.49471
upperneck -5.5943 -2.98361 6.70208
head 1.31789 -1.26251 2.80622
rclavicle -2.84262e-014 9.93923e-015
rhumerus -54.1899 7.04485 -93.473
rradius 61.2472
rwrist 2.16101
rhand -24.0046 24.0914
rfingers 7.12502
rthumb 2.47288 -5.87397
lclavicle -2.84262e-014 9.93923e-015
lhumerus -34.2675 -6.19427 84.0429
lradius 68.9936
lwrist -165.218
lhand -25.5829 11.8811
lfingers 7.12502
lthumb 0.94857 41.8588
rfemur -27.187 -11.4029 27.1819
rtibia 70.8095
rfoot -32.1642 8.0413
rtoes 4.67706
lfemur -25.7878 4.01937 -15.2712
ltibia 71.8865
lfoot -31.2294 -16.1066
ltoes 1.08663
3
root 3.11776 15.4856 18.4894 1081.35 -6.10556 -4.11191
lowerback 12.0698 -1.49325 3.543
upperback 4.78033 -1.59678 -0.347823
thorax -1.86321 -0.766965 -2.14168
lowerneck -16.6358 -2.67433 -4.41319
upperneck -5.03506 -2.85583 6.57576
head 1.43295 -1.20357 2.75825
rclavicle 8.15017e-015 1.86858e-014
rhumerus -54.3893 7.12156 -93.6635
rradius 61.8814
rwrist 2.17472
rhand -23.9056 24.5282
rfingers 7.12502
rthumb 2.56851 -5.43611
lclavicle 8.15017e-015 1.86858e-014
lhumerus -34.6769 -7.07615 84.1748
lradius 69.6026
lwrist -164.794
lhand -26.0116 12.3858
lfingers 7.12502
lthumb 0.534501 42.3649
rfemur -25.2684 -11.6268 26.7258
rtibia 70.1739
rfoot -31.7653 8.00893
rtoes 2.25791
lfemur -23.9494 3.891 -15.1644
ltibia 71.2032
lfoot -30.0999 -16.2
ltoes -0.14746
4
root 3.09245 15.5893 18.8063 1080.94 -6.02023 -4.14965
lowerback 10.8883 -1.56035 3.65001
upperback 4.69488 -1.72052 -0.330323
thorax -1.32047 -0.819846 -2.19128
lowerneck -16.0674 -2.55203 -4.46925
upperneck -4.43864 -2.72408 6.51528
head 1.52781 -1.14213 2.75934
rclavicle -2.61402e-014 2.78299e-015
rhumerus -54.6003 7.21738 -93.8621
rradius 62.5221
rwrist 2.33639
rhand -23.84 25.0346
rfingers 7.12502
rthumb 2.63188 -4.92886
lclavicle -2.61402e-014 2.78299e-015
lhumerus -35.144 -7.9054 84.3289
lradius 70.6365
lwrist -164.441
lhand -26.6975 12.3809
lfingers 7.12502
lthumb -0.127942 42.3606
rfemur -23.0653 -11.8169 26.2755
rtibia 69.1744
rfoot -31.06 8.05319
rtoes -0.104255
lfemur -21.8818 3.86604 -15.0043
ltibia 70.1269
lfoot -28.523 -16.1393
ltoes -2.20034
5
root 3.06095 15.7267 19.1299 1080.46 -5.92598 -4.12602
lowerback 9.51705 -1.61526 3.61539
upperback 4.65949 -1.85248 -0.306564
thorax -0.615755 -0.874929 -2.1638
lowerneck -15.3754 -2.42903 -4.58792
upperneck -3.81181 -2.58705 6.4883
head 1.61216 -1.07863 2.7841
rclavicle 2.66371e-014 -8.74653e-015
rhumerus -54.6825 7.28202 -94.0362
rradius 63.2134
rwrist 2.74384
rhand -23.6835 25.647
rfingers 7.12502
rthumb 2.78307 -4.31461
lclavicle 2.66371e-014 -8.74653e-015
lhumerus -35.5927 -8.61847 84.494
lradius 71.9384
lwrist -164.182
lhand -27.5362 12.0562
lfingers 7.12502
lthumb -0.937941 42.0338
rfemur -20.6188 -11.9197 25.7696
rtibia 67.8093
rfoot -29.9476 8.07638
rtoes -2.27726
lfemur -19.6113 3.86322 -14.8626
ltibia 68.6896
lfoot -26.3806 -16.0652
ltoes -4.26117
6
root 3.02408 15.8966 19.455 1079.93 -5.80517 -4.13541
lowerback 8.13788 -1.6773 3.53951
upperback 4.62237 -1.99632 -0.249003
thorax 0.0971537 -0.937031 -2.08347
lowerneck -14.4788 -2.2958 -4.81231
upperneck -3.1824 -2.42946 6.52173
head 1.66227 -1.00623 2.85048
rclavicle -8.34896e-015 4.77083e-015
rhumerus -54.827 7.4198 -94.2117
rradius 64.1255
rwrist 3.21943
rhand -23.3554 26.0813
rfingers 7.12502
rthumb 3.09988 -3.87588
lclavicle -8.34896e-015 4.77083e-015
lhumerus -36.0665 -9.33045 84.6531
lradius 73.4436
lwrist -163.88
lhand -28.4335 11.5524
lfingers 7.12502
lthumb -1.80461 41.5245
rfemur -17.9755 -11.9497 25.3366
rtibia 66.0623
rfoot -28.4285 8.07481
rtoes -4.82134
lfemur -17.2425 3.9136 -14.639
ltibia 67.0254
lfoot -23.9158 -15.7793
ltoes -7.54762
